<mxfile modified="2022-01-07T06:35:36.855Z" host="drawio-plugin" agent="5.0 (Windows NT 6.2; Win64; x64) AppleWebKit/537.36 (KHTML, like Gecko) Chrome/87.0.4280.141 Safari/537.36" etag="zITEk24V6YprGtOjCZmR" version="15.5.4" type="embed"><diagram name="logical_view" id="gOOX4G0cLXrp1_yre5Qv"><mxGraphModel dx="1258" dy="742" grid="1" gridSize="10" guides="1" tooltips="1" connect="1" arrows="1" fold="1" page="1" pageScale="1" pageWidth="827" pageHeight="1169" math="0" shadow="0"><root><mxCell id="fc_m-Gp1DQ3GTi2ffTte-0"/><mxCell id="fc_m-Gp1DQ3GTi2ffTte-1" parent="fc_m-Gp1DQ3GTi2ffTte-0"/><mxCell id="SwlYja6bmXtAv2LbIv9P-16" value="" style="rounded=0;whiteSpace=wrap;html=1;fontSize=17;" parent="fc_m-Gp1DQ3GTi2ffTte-1" vertex="1"><mxGeometry x="207" y="312" width="150" height="248" as="geometry"/></mxCell><mxCell id="7" style="edgeStyle=none;rounded=0;orthogonalLoop=1;jettySize=auto;html=1;exitX=0.5;exitY=1;exitDx=0;exitDy=0;dashed=1;" parent="fc_m-Gp1DQ3GTi2ffTte-1" source="fc_m-Gp1DQ3GTi2ffTte-3" target="1" edge="1"><mxGeometry relative="1" as="geometry"/></mxCell><mxCell id="fc_m-Gp1DQ3GTi2ffTte-3" value="browser-web" style="rounded=0;whiteSpace=wrap;html=1;fontSize=17;strokeColor=#FF0000;" parent="fc_m-Gp1DQ3GTi2ffTte-1" vertex="1"><mxGeometry x="19" y="190" width="120" height="60" as="geometry"/></mxCell><mxCell id="6" style="edgeStyle=none;rounded=0;orthogonalLoop=1;jettySize=auto;html=1;exitX=0.5;exitY=1;exitDx=0;exitDy=0;entryX=0.5;entryY=0;entryDx=0;entryDy=0;dashed=1;" parent="fc_m-Gp1DQ3GTi2ffTte-1" source="fc_m-Gp1DQ3GTi2ffTte-4" target="3" edge="1"><mxGeometry relative="1" as="geometry"/></mxCell><mxCell id="fc_m-Gp1DQ3GTi2ffTte-4" value="服务&lt;br style=&quot;font-size: 17px;&quot;&gt;browser-agent" style="rounded=0;whiteSpace=wrap;html=1;fontSize=17;strokeColor=#FF0000;" parent="fc_m-Gp1DQ3GTi2ffTte-1" vertex="1"><mxGeometry x="429" y="500" width="120" height="60" as="geometry"/></mxCell><mxCell id="10" style="edgeStyle=none;rounded=0;orthogonalLoop=1;jettySize=auto;html=1;exitX=0.5;exitY=0;exitDx=0;exitDy=0;entryX=0.5;entryY=1;entryDx=0;entryDy=0;dashed=1;fontSize=18;" parent="fc_m-Gp1DQ3GTi2ffTte-1" source="fc_m-Gp1DQ3GTi2ffTte-6" target="9" edge="1"><mxGeometry relative="1" as="geometry"/></mxCell><mxCell id="fc_m-Gp1DQ3GTi2ffTte-6" value="服务&lt;br style=&quot;font-size: 17px;&quot;&gt;browser-api" style="rounded=0;whiteSpace=wrap;html=1;fontSize=17;strokeColor=#FF0000;" parent="fc_m-Gp1DQ3GTi2ffTte-1" vertex="1"><mxGeometry x="222" y="190" width="120" height="60" as="geometry"/></mxCell><mxCell id="fc_m-Gp1DQ3GTi2ffTte-7" value="特殊节点" style="rounded=0;whiteSpace=wrap;html=1;fontSize=17;" parent="fc_m-Gp1DQ3GTi2ffTte-1" vertex="1"><mxGeometry x="429" y="312" width="120" height="60" as="geometry"/></mxCell><mxCell id="fc_m-Gp1DQ3GTi2ffTte-8" value="mysql" style="rounded=0;whiteSpace=wrap;html=1;fontSize=17;" parent="fc_m-Gp1DQ3GTi2ffTte-1" vertex="1"><mxGeometry x="223" y="405.5" width="120" height="60" as="geometry"/></mxCell><mxCell id="fc_m-Gp1DQ3GTi2ffTte-9" value="热点存储：redis" style="rounded=0;whiteSpace=wrap;html=1;fontSize=17;" parent="fc_m-Gp1DQ3GTi2ffTte-1" vertex="1"><mxGeometry x="223" y="331.5" width="120" height="60" as="geometry"/></mxCell><mxCell id="fc_m-Gp1DQ3GTi2ffTte-17" value="" style="endArrow=classic;html=1;exitX=1;exitY=0.5;exitDx=0;exitDy=0;entryX=0;entryY=0.5;entryDx=0;entryDy=0;fontSize=17;" parent="fc_m-Gp1DQ3GTi2ffTte-1" source="fc_m-Gp1DQ3GTi2ffTte-3" target="fc_m-Gp1DQ3GTi2ffTte-6" edge="1"><mxGeometry width="50" height="50" relative="1" as="geometry"><mxPoint x="89" y="570" as="sourcePoint"/><mxPoint x="339" y="270" as="targetPoint"/></mxGeometry></mxCell><mxCell id="fc_m-Gp1DQ3GTi2ffTte-20" value="查询" style="text;html=1;resizable=0;points=[];align=center;verticalAlign=middle;labelBackgroundColor=#ffffff;fontSize=17;" parent="fc_m-Gp1DQ3GTi2ffTte-17" vertex="1" connectable="0"><mxGeometry x="-0.1739" y="-1" relative="1" as="geometry"><mxPoint x="2" y="19" as="offset"/></mxGeometry></mxCell><mxCell id="fc_m-Gp1DQ3GTi2ffTte-21" value="" style="endArrow=classic;html=1;exitX=0.5;exitY=1;exitDx=0;exitDy=0;entryX=0.5;entryY=0;entryDx=0;entryDy=0;edgeStyle=orthogonalEdgeStyle;fontSize=17;" parent="fc_m-Gp1DQ3GTi2ffTte-1" source="fc_m-Gp1DQ3GTi2ffTte-7" target="fc_m-Gp1DQ3GTi2ffTte-4" edge="1"><mxGeometry width="50" height="50" relative="1" as="geometry"><mxPoint x="369" y="570" as="sourcePoint"/><mxPoint x="379" y="520" as="targetPoint"/></mxGeometry></mxCell><mxCell id="fc_m-Gp1DQ3GTi2ffTte-22" value="同步" style="text;html=1;resizable=0;points=[];align=center;verticalAlign=middle;labelBackgroundColor=#ffffff;fontSize=17;" parent="fc_m-Gp1DQ3GTi2ffTte-21" vertex="1" connectable="0"><mxGeometry x="-0.1833" y="-3" relative="1" as="geometry"><mxPoint x="23" as="offset"/></mxGeometry></mxCell><mxCell id="SwlYja6bmXtAv2LbIv9P-0" value="" style="endArrow=classic;html=1;exitX=0;exitY=0.5;exitDx=0;exitDy=0;edgeStyle=orthogonalEdgeStyle;fontSize=17;entryX=1;entryY=0.5;entryDx=0;entryDy=0;" parent="fc_m-Gp1DQ3GTi2ffTte-1" source="fc_m-Gp1DQ3GTi2ffTte-4" target="SwlYja6bmXtAv2LbIv9P-16" edge="1"><mxGeometry width="50" height="50" relative="1" as="geometry"><mxPoint x="592" y="470" as="sourcePoint"/><mxPoint x="357" y="498" as="targetPoint"/></mxGeometry></mxCell><mxCell id="SwlYja6bmXtAv2LbIv9P-19" value="写入" style="text;html=1;resizable=0;points=[];align=center;verticalAlign=middle;labelBackgroundColor=#ffffff;fontSize=17;" parent="SwlYja6bmXtAv2LbIv9P-0" vertex="1" connectable="0"><mxGeometry x="0.1333" y="-5" relative="1" as="geometry"><mxPoint x="17" y="-2.5" as="offset"/></mxGeometry></mxCell><mxCell id="SwlYja6bmXtAv2LbIv9P-6" value="" style="endArrow=classic;html=1;exitX=0.5;exitY=1;exitDx=0;exitDy=0;edgeStyle=orthogonalEdgeStyle;entryX=0.5;entryY=0;entryDx=0;entryDy=0;fontSize=17;" parent="fc_m-Gp1DQ3GTi2ffTte-1" source="fc_m-Gp1DQ3GTi2ffTte-6" target="SwlYja6bmXtAv2LbIv9P-16" edge="1"><mxGeometry width="50" height="50" relative="1" as="geometry"><mxPoint x="427" y="260" as="sourcePoint"/><mxPoint x="767" y="330" as="targetPoint"/></mxGeometry></mxCell><mxCell id="SwlYja6bmXtAv2LbIv9P-7" value="查询" style="text;html=1;resizable=0;points=[];align=center;verticalAlign=middle;labelBackgroundColor=#ffffff;fontSize=17;" parent="SwlYja6bmXtAv2LbIv9P-6" vertex="1" connectable="0"><mxGeometry x="-0.1739" y="-1" relative="1" as="geometry"><mxPoint x="-26" y="-1" as="offset"/></mxGeometry></mxCell><mxCell id="SwlYja6bmXtAv2LbIv9P-12" value="" style="endArrow=classic;html=1;exitX=1;exitY=0.5;exitDx=0;exitDy=0;edgeStyle=orthogonalEdgeStyle;entryX=0.5;entryY=0;entryDx=0;entryDy=0;fontSize=17;" parent="fc_m-Gp1DQ3GTi2ffTte-1" source="fc_m-Gp1DQ3GTi2ffTte-6" target="fc_m-Gp1DQ3GTi2ffTte-7" edge="1"><mxGeometry width="50" height="50" relative="1" as="geometry"><mxPoint x="292" y="640" as="sourcePoint"/><mxPoint x="292" y="480" as="targetPoint"/></mxGeometry></mxCell><mxCell id="SwlYja6bmXtAv2LbIv9P-13" value="查询" style="text;html=1;resizable=0;points=[];align=center;verticalAlign=middle;labelBackgroundColor=#ffffff;fontSize=17;" parent="SwlYja6bmXtAv2LbIv9P-12" vertex="1" connectable="0"><mxGeometry x="0.1805" y="1" relative="1" as="geometry"><mxPoint x="-74" y="21" as="offset"/></mxGeometry></mxCell><mxCell id="7MQkZH9lYIZDU4Ub7Tr6-2" value="elasticsearch" style="rounded=0;whiteSpace=wrap;html=1;fontSize=17;" parent="fc_m-Gp1DQ3GTi2ffTte-1" vertex="1"><mxGeometry x="223" y="478.5" width="120" height="60" as="geometry"/></mxCell><mxCell id="tnfj5mynWAeeGFpyN0lF-0" value="alaya&amp;nbsp; or platon&lt;br style=&quot;font-size: 17px;&quot;&gt;blockchain" style="ellipse;shape=cloud;whiteSpace=wrap;html=1;fontSize=17;" parent="fc_m-Gp1DQ3GTi2ffTte-1" vertex="1"><mxGeometry x="615" y="210" width="166" height="240" as="geometry"/></mxCell><mxCell id="tnfj5mynWAeeGFpyN0lF-1" value="" style="endArrow=classic;startArrow=classic;html=1;exitX=1;exitY=0.5;exitDx=0;exitDy=0;entryX=0.16;entryY=0.55;entryDx=0;entryDy=0;entryPerimeter=0;fontSize=17;" parent="fc_m-Gp1DQ3GTi2ffTte-1" source="fc_m-Gp1DQ3GTi2ffTte-7" target="tnfj5mynWAeeGFpyN0lF-0" edge="1"><mxGeometry width="50" height="50" relative="1" as="geometry"><mxPoint x="559" y="440" as="sourcePoint"/><mxPoint x="609" y="390" as="targetPoint"/></mxGeometry></mxCell><mxCell id="tnfj5mynWAeeGFpyN0lF-2" value="p2p" style="edgeLabel;html=1;align=center;verticalAlign=middle;resizable=0;points=[];fontSize=17;" parent="tnfj5mynWAeeGFpyN0lF-1" vertex="1" connectable="0"><mxGeometry x="0.269" y="1" relative="1" as="geometry"><mxPoint x="-20" y="-11" as="offset"/></mxGeometry></mxCell><mxCell id="1" value="具体修改内容请参看《browser-web修改功能点.docx》" style="rounded=0;whiteSpace=wrap;html=1;fontSize=17;strokeColor=#FFFFFF;dashed=1;" parent="fc_m-Gp1DQ3GTi2ffTte-1" vertex="1"><mxGeometry x="9" y="331.5" width="160" height="88.5" as="geometry"/></mxCell><mxCell id="3" value="具体修改内容参看文件:《后台服务改动方案.docx》和《数据库修改方案》&amp;nbsp;" style="rounded=0;whiteSpace=wrap;html=1;fontSize=17;strokeColor=#FFFFFF;dashed=1;" parent="fc_m-Gp1DQ3GTi2ffTte-1" vertex="1"><mxGeometry x="509" y="590" width="310" height="60" as="geometry"/></mxCell><mxCell id="8" value="&lt;font style=&quot;font-size: 18px&quot;&gt;本次的修改是在现有的逻辑架构上增加了ERC1155的识别以及相应的数据库&lt;/font&gt;" style="rounded=0;whiteSpace=wrap;html=1;dashed=1;strokeColor=none;fillColor=none;" parent="fc_m-Gp1DQ3GTi2ffTte-1" vertex="1"><mxGeometry x="110" y="700" width="650" height="75" as="geometry"/></mxCell><mxCell id="9" value="具体修改内容请参看《新增接口方案.docx》" style="rounded=0;whiteSpace=wrap;html=1;fontSize=17;strokeColor=#FFFFFF;dashed=1;" parent="fc_m-Gp1DQ3GTi2ffTte-1" vertex="1"><mxGeometry x="349" y="50" width="191" height="80" as="geometry"/></mxCell></root></mxGraphModel></diagram></mxfile>